<?xml version="1.0" ?><svg id="Layer_1" style="enable-background:new 0 0 512 512;" version="1.1" viewBox="0 0 512 512" xml:space="preserve" xmlns="http://www.w3.org/2000/svg" xmlns:xlink="http://www.w3.org/1999/xlink"><style type="text/css">
	.st0{fill:#F9AC82;}
	.st1{fill:#F8BC95;}
	.st2{fill:#0083BF;}
	.st3{fill:#0095DA;}
	.st4{fill:#1A3F6F;}
</style><g><path class="st0" d="M256,463.7L256,463.7c-9,0-16.2-7.3-16.2-16.2V321.8h32.4v125.7C272.2,456.5,265,463.7,256,463.7z"/><path class="st1" d="M252.6,421.7c-3.3,0-6-2.7-6-6v-79.8c0-3.3,2.7-6,6-6s6,2.7,6,6v79.8C258.6,419.1,256,421.7,252.6,421.7z"/><path class="st1" d="M252.6,451.6c-3.3,0-6-2.7-6-6v-11c0-3.3,2.7-6,6-6s6,2.7,6,6v11C258.6,448.9,256,451.6,252.6,451.6z"/><path class="st2" d="M279.8,48.3h-18.4c3,7.7,4.7,16.1,4.7,24.9c0,37.5-30.4,68-68,68c-7.3,0-14.2-1.1-20.8-3.3v162.6   c0,30.3,24.6,54.9,54.9,54.9h47.5c30.3,0,54.9-24.6,54.9-54.9V103.2C334.7,72.8,310.1,48.3,279.8,48.3z"/><g><path class="st3" d="M316.1,111.4c-3.3,0-6-2.7-6-6c0-16.5-13.5-30-30-30c-3.3,0-6-2.7-6-6s2.7-6,6-6c23.2,0,42,18.8,42,42    C322.1,108.8,319.4,111.4,316.1,111.4z"/></g><path class="st3" d="M196.1,310.8c-3.3,0-6-2.7-6-6V157c0-3.3,2.7-6,6-6s6,2.7,6,6v147.8C202.1,308.1,199.4,310.8,196.1,310.8z"/><path class="st4" d="M279.8,42.3h-18.3c-1.9,0-3.7,0.9-4.9,2.5c-1.1,1.6-1.4,3.6-0.8,5.4c2.1,6.5,3.2,13.2,3.2,20   c0,35.4-28.8,64.2-64.2,64.2c-5.4,0-10.8-0.7-16-2c-1.8-0.5-3.7-0.1-5.2,1.1c-1.5,1.1-2.3,2.9-2.3,4.7v162.3   c0,33.6,27.3,60.9,60.9,60.9h1.6v86.2c0,12.2,10,22.2,22.2,22.2c12.2,0,22.2-10,22.2-22.2v-86.2h1.6c33.6,0,60.9-27.3,60.9-60.9   V103.2C340.7,69.6,313.3,42.3,279.8,42.3z M266.2,447.5c0,5.6-4.6,10.2-10.2,10.2c-5.6,0-10.2-4.6-10.2-10.2v-86.2h20.4V447.5z    M328.7,300.4c0,27-21.9,48.9-48.9,48.9h-47.5c-27,0-48.9-21.9-48.9-48.9v-155c3.8,0.6,7.6,0.9,11.5,0.9c42,0,76.2-34.2,76.2-76.2   c0-5.4-0.6-10.7-1.7-15.9h10.4c27,0,48.9,21.9,48.9,48.9V300.4z"/></g></svg>