<?xml version="1.0" ?><svg id="Layer_1" style="enable-background:new 0 0 512 512;" version="1.1" viewBox="0 0 512 512" xml:space="preserve" xmlns="http://www.w3.org/2000/svg" xmlns:xlink="http://www.w3.org/1999/xlink"><style type="text/css">
	.st0{fill:#EE3544;}
	.st1{fill:#0083BF;}
	.st2{fill:#FFCB05;}
	.st3{fill:#F9AC82;}
	.st4{fill:none;stroke:#1A3F6F;stroke-width:12;stroke-linecap:round;stroke-linejoin:round;stroke-miterlimit:10;}
	.st5{fill:#F8BC95;}
	.st6{fill:#FFFFFF;}
	.st7{fill:#F1F2F2;}
	.st8{fill:#FFDE2F;}
	.st9{fill:#0095DA;}
	.st10{fill:#F15C5C;}
	.st11{fill:#1A3F6F;}
</style><g><path class="st0" d="M287.2,177.4c10.4-3.6,17.9-13.6,17.9-25.3c0-14.8-12-26.7-26.7-26.7c-14.8,0-28.6,12.8-26.7,29.7   C251.7,155.1,251.6,169.5,287.2,177.4"/><circle class="st1" cx="314.1" cy="322.6" r="64"/><circle class="st2" cx="197.5" cy="313.8" r="69.5"/><path class="st3" d="M385.4,330.6H126.6c-2.9,0-4.9,2.9-3.9,5.6l6.9,18.6c0.6,1.6,2.2,2.7,3.9,2.7h3.5l14.2,39.3   c3.7,10.2,13.3,17,24.1,17h161.3c10.8,0,20.5-6.8,24.1-17l14.2-39.3h3.5c1.7,0,3.3-1.1,3.9-2.7l6.9-18.6   C390.3,333.5,388.3,330.6,385.4,330.6z"/><path class="st4" d="M287.2,177.4"/><path class="st5" d="M248.3,400.2h-54.8c-13.3,0-25.3-8.4-29.8-20.9L152.8,349c-1.1-3.1,0.5-6.6,3.6-7.7c3.1-1.1,6.6,0.5,7.7,3.6   l10.9,30.3c2.8,7.8,10.2,13,18.5,13h54.8c3.3,0,6,2.7,6,6S251.7,400.2,248.3,400.2z"/><path class="st6" d="M186.6,246c0,0,60.8,66,125.8,10.9c0,0,16.1-21.2,12.4-47.4c-2.5-17.8-16.5-25.6-42.3-34   c-12.7-4.4-29.9-13.3-35.2-22.6c-5.9-10.6-8.7-30.8-8.7-30.8c-73.9,59.8-9.8,95.4-9.8,95.4C204.9,222.3,188.8,232.7,186.6,246z"/><path class="st7" d="M230.6,200.5c-1.4,0-2.8-0.5-3.9-1.5c-7.8-6.8-10.4-16.7-7.4-28.7c2-8.3,6.1-14.7,6.2-15   c1.8-2.8,5.5-3.7,8.3-1.9c2.8,1.8,3.6,5.5,1.9,8.3l0,0c-0.1,0.2-11.7,19.2-1.2,28.3c2.5,2.2,2.8,6,0.6,8.5   C233.9,199.8,232.2,200.5,230.6,200.5z"/><path class="st7" d="M309.9,223.4c-3,0-5.6-2.3-6-5.4c-0.1-1.1-1.5-10.7-11-12c-3.3-0.4-5.6-3.5-5.1-6.8c0.4-3.3,3.5-5.6,6.8-5.1   c15.3,2.1,20.6,15.7,21.3,22.7c0.3,3.3-2.1,6.2-5.4,6.6C310.3,223.4,310.1,223.4,309.9,223.4z"/><path class="st7" d="M214.3,250.3c-2.2,0-4.2-1.2-5.3-3.2c-1.5-2.9-0.4-6.6,2.5-8.1c27.7-14.7,65.7-11.5,67.3-11.4   c3.3,0.3,5.7,3.2,5.5,6.5c-0.3,3.3-3.2,5.7-6.5,5.5c-0.5,0-36.2-2.9-60.7,10.1C216.2,250.1,215.3,250.3,214.3,250.3z"/><path class="st8" d="M149.4,317.5c-0.2,0-0.3,0-0.5,0c-3.3-0.2-5.8-3.1-5.5-6.4c0.1-1.3,2.7-32.2,29.2-45.9   c2.9-1.5,6.6-0.4,8.1,2.6c1.5,2.9,0.4,6.6-2.6,8.1c-20.6,10.6-22.7,35.9-22.8,36.1C155.1,315.1,152.5,317.5,149.4,317.5z"/><path class="st9" d="M355.1,308.2c-2.2,0-4.3-1.2-5.3-3.2c-10.6-20.6-35.9-22.7-36.1-22.8c-3.3-0.2-5.8-3.1-5.5-6.4   c0.2-3.3,3.1-5.8,6.4-5.5c1.3,0.1,32.2,2.7,45.9,29.2c1.5,2.9,0.4,6.6-2.6,8.1C357,308,356,308.2,355.1,308.2z"/><path class="st10" d="M287.2,160.5c-0.3,0-0.5,0-0.8-0.1c-3.3-0.4-5.6-3.4-5.2-6.7c0.5-3.7-3.4-5.1-4.6-5.4   c-3.2-0.9-5.1-4.1-4.2-7.3c0.8-3.2,4.2-5.1,7.4-4.3c0.6,0.2,3.9,1.1,7,3.6c4.8,3.7,7.1,9.1,6.3,15   C292.8,158.3,290.2,160.5,287.2,160.5z"/><path class="st11" d="M393.7,329c-1.9-2.7-5-4.4-8.3-4.4h-1.3c0-0.7,0-1.3,0-2c0-35.7-26.8-65.2-61.4-69.4   c4.8-9.2,10.9-25,8.3-43.2c-2.4-17.6-15-26.7-30.9-33.3c6.9-6.1,11-15,11-24.5c0-8.9-3.5-16.9-9.3-22.8c2-3.4,6.1-8.4,13.7-10.3   c3.2-0.8,5.1-4.1,4.3-7.3c-0.8-3.2-4.1-5.1-7.3-4.3c-10.9,2.8-17.2,9.7-20.5,15c-4.2-1.9-8.8-3-13.7-3c-9.3,0-18.3,4.1-24.6,11.1   c-2.3,2.6-4.1,5.4-5.5,8.4c-1.8-6.6-3-13.3-3.4-16.4c-0.3-2.1-1.7-4-3.7-4.8c-2-0.8-4.3-0.4-6,0.9c-26.8,21.7-39.4,43.1-37.6,63.8   c1.4,15.6,10.6,26.9,18.3,33.8c-7.5,2.6-14.4,5.9-20,9.8c-5.9,4.1-10.2,8.7-12.6,13.6c-34.8,6.7-61.2,37.4-61.2,74.1   c0,3.9,0.3,7.8,0.9,11.5c-1.8,0.7-3.4,2-4.6,3.6c-1.9,2.7-2.3,6.2-1.2,9.3l6.9,18.6c1.4,3.7,4.9,6.3,8.8,6.6l12.8,35.4   c4.5,12.5,16.5,20.9,29.8,20.9h161.3c13.3,0,25.3-8.4,29.8-20.9l12.8-35.4c3.9-0.3,7.4-2.9,8.8-6.6l6.9-18.6   C396,335.2,395.6,331.7,393.7,329z M372.1,322.6c0,0.7,0,1.3,0,2h-99.8c0.5-3.5,0.8-7.1,0.8-10.8c0-10-2-19.5-5.5-28.3   c14.6-1.8,30.5-7.8,46.7-20.9C346.2,264.7,372.1,290.7,372.1,322.6z M257.6,154.4c-0.6-5.9,1.2-11.5,5.1-15.9   c4-4.5,9.9-7.1,15.7-7.1c11.4,0,20.7,9.3,20.7,20.7c0,8.6-5.3,16.3-13.2,19.3c-0.4-0.1-0.8-0.3-1.2-0.4c-9.7-3.4-20.7-9-27.2-14.6   C257.6,155.8,257.7,155.1,257.6,154.4z M202.6,236c7.1-4.9,16.7-8.7,27.3-11.3c0.4-0.1,0.9-0.2,1.3-0.3c16.1-3.6,34.5-4.3,50.4-1.1   c3.2,0.6,6.4-1.5,7.1-4.7c0.6-3.2-1.5-6.4-4.7-7.1c-17.1-3.4-36.4-2.9-53.7,0.8c-5.2-3.5-19.3-14.4-20.7-31   c-1.2-14.5,7.3-30.2,25.4-46.6c1.5,7,4,16.1,7.5,22.4c6.2,11,24.5,20.5,38.4,25.3c0,0,0.1,0,0.1,0c27.1,8.8,36.4,15.9,38.2,29.1   c3,21.3-8.7,39.3-10.9,42.5c-24.9,20.8-51.8,25.5-80.2,13.9c-16.8-6.9-29.4-17.7-34.4-22.4C195.1,242.3,198.1,239.1,202.6,236z    M183,252c3.1,3.2,18,17.9,40.1,27c8.9,3.7,19.6,6.6,31.5,7.1c4.1,8.4,6.4,17.8,6.4,27.8c0,3.7-0.3,7.3-0.9,10.8H134.9   c-0.6-3.5-0.9-7.1-0.9-10.8C134,283.8,155,258.6,183,252z M355.1,394.8c-2.8,7.8-10.2,13-18.5,13H175.4c-8.3,0-15.7-5.2-18.5-13   l-11.3-31.3h220.8L355.1,394.8z M377.2,351.5H134.8l-5.5-14.9h253.4L377.2,351.5z"/></g></svg>